<svg width="149" height="42" viewBox="0 0 149 42" fill="none" xmlns="http://www.w3.org/2000/svg">
<g clip-path="url(#clip0_253_1085)">
<path d="M142.372 27.6832L148.863 10.5288H142.985L139.447 21.2088L135.686 10.5288H129.78L136.661 28.0152L136.187 29.1497C135.574 30.3117 134.516 31.5291 132.789 31.5568H132.621C131.646 31.5568 130.811 31.4185 130.059 31.1971H129.975L129.39 36.3434H129.473C130.449 36.4818 131.451 36.5648 132.426 36.5371C134.794 36.5094 136.772 35.8177 138.305 34.5727C139.586 33.5489 140.728 31.8058 141.759 29.3433L141.815 29.1773C142.01 28.707 142.205 28.2089 142.372 27.6832Z" fill="#333333"/>
<path d="M128.08 28.9559H122.787V26.9638C122.258 27.7385 120.921 29.5646 117.16 29.5646C111.533 29.5646 107.883 25.2484 107.883 19.7147C107.883 13.4893 112.368 9.92008 117.076 9.92008C120.364 9.92008 121.924 11.5248 122.509 12.1059V10.1138V5.0781L128.053 4.41406L128.08 28.9559ZM113.455 19.687C113.455 22.5092 115.488 24.3907 118.107 24.3907C119.444 24.3907 120.67 23.865 121.534 23.0072C122.397 22.1495 122.899 20.9598 122.843 19.5764C122.843 18.2483 122.314 17.1139 121.478 16.3115C120.642 15.4814 119.472 15.0111 118.163 15.0111C114.959 15.0111 113.455 17.5012 113.455 19.6317V19.687Z" fill="#333333"/>
<path d="M105.849 28.9559H100.306V26.9637C99.3027 28.7622 96.9904 29.5922 94.8175 29.5922C88.9393 29.5922 85.4849 25.027 85.4849 19.7423C85.4849 13.7106 89.8586 9.92 94.8175 9.92C97.854 9.92 99.5534 11.3864 100.306 12.5208V10.5564L105.849 9.89233V28.9559ZM91.0566 19.8253C91.0566 21.5131 92.3381 24.4459 95.6532 24.4459C97.6312 24.4459 98.8291 23.5052 99.5255 22.3985C99.9991 21.6791 100.222 20.8767 100.306 20.0466C100.361 19.2166 100.194 18.3865 99.832 17.6118C99.2191 16.3391 97.9655 15.0663 95.6254 15.0663C92.4495 15.0663 91.0566 17.7225 91.0566 19.7976V19.8253Z" fill="#333333"/>
<path d="M85.2898 24.5291C84.2869 24.1971 83.5626 23.533 83.089 22.7306C82.3368 21.3749 82.309 19.9638 82.309 18.608V4.38647L76.7651 5.05052V18.5804C76.7651 22.2049 77.1273 24.5567 79.6624 26.9362C81.7239 29.039 84.8441 29.5371 86.8221 29.5371H90.0536C89.8586 29.4541 89.6636 29.371 89.4686 29.2604C88.995 29.0114 88.5493 28.7347 88.1314 28.4027C86.8778 27.4343 85.9027 26.0785 85.2898 24.5291Z" fill="#333333"/>
<path d="M74.2579 26.7148C74.2579 29.4816 74.0628 31.2248 73.1435 32.8019C71.6949 35.126 68.324 37.1458 63.7552 37.1458C57.3199 37.1458 54.8683 33.2999 54.5062 30.6714H60.9136C61.3037 31.5568 62.0558 32.0271 62.6966 32.2762C63.3652 32.4975 64.0059 32.4975 64.1731 32.4975C66.2903 32.4975 68.6862 31.1971 68.6862 28.0152V26.9085C68.0454 27.9599 66.4575 29.537 63.5323 29.537C58.4899 29.537 54.1719 25.7464 54.1719 19.853C54.1719 13.5446 58.7128 9.92008 63.5323 9.92008C65.5939 9.92008 67.6554 10.6395 68.714 12.2442V10.5288L74.2579 9.86475V26.7148ZM59.7157 19.687C59.7157 22.5922 61.8608 24.3907 64.1731 24.3907C65.5381 24.3907 66.6246 23.9203 67.4047 23.1179C68.1847 22.3155 68.6304 21.2365 68.714 19.936C68.714 18.5803 68.324 17.3352 67.544 16.4775C66.8196 15.5921 65.6774 15.0387 64.2009 15.0387C61.833 15.0387 59.7157 16.9202 59.7157 19.604V19.687Z" fill="#333333"/>
<path d="M39.8247 2.11759C36.5931 -1.09194 30.1021 -0.510904 22.0788 3.00298C21.3824 3.30734 20.5745 3.30734 19.878 3.00298C11.8548 -0.538573 5.36373 -1.09194 2.13214 2.11759C-1.09944 5.32713 -0.514414 11.7739 3.02362 19.7424C3.33006 20.4341 3.33006 21.2365 3.02362 21.9282C-0.542273 29.8967 -1.09944 36.3434 2.13214 39.553C5.36373 42.7625 11.8548 42.1815 19.878 38.6676C20.5745 38.3632 21.3824 38.3632 22.0788 38.6676C30.1021 42.2091 36.5931 42.7625 39.8247 39.553C43.0563 36.3434 42.4713 29.8967 38.9332 21.9282C38.6268 21.2365 38.6268 20.4341 38.9332 19.7424C42.4991 11.7739 43.0563 5.32713 39.8247 2.11759Z" fill="#E84545"/>
</g>
<defs>
<clipPath id="clip0_253_1085">
<rect width="149" height="42" fill="white"/>
</clipPath>
</defs>
</svg>
